<svg width="38" height="38" viewBox="0 0 38 38" fill="none" xmlns="http://www.w3.org/2000/svg">
<foreignObject x="-20" y="-20" width="78" height="78"><div xmlns="http://www.w3.org/1999/xhtml" style="backdrop-filter:blur(10px);clip-path:url(#bgblur_0_1_464_clip_path);height:100%;width:100%"></div></foreignObject><g data-figma-bg-blur-radius="20">
<path d="M38 19C38 8.50659 29.4934 0 19 0C8.50659 0 0 8.50659 0 19C0 29.4934 8.50659 38 19 38C29.4934 38 38 29.4934 38 19Z" fill="white" fill-opacity="0.2"/>
</g>
<path d="M19 15.124L23.313 19.437L19 23.75" stroke="white" stroke-linecap="round" stroke-linejoin="round"/>
<defs>
<clipPath id="bgblur_0_1_464_clip_path" transform="translate(20 20)"><path d="M38 19C38 8.50659 29.4934 0 19 0C8.50659 0 0 8.50659 0 19C0 29.4934 8.50659 38 19 38C29.4934 38 38 29.4934 38 19Z"/>
</clipPath></defs>
</svg>
