<svg width="67" height="67" viewBox="0 0 67 67" fill="none" xmlns="http://www.w3.org/2000/svg">
<rect width="66.9204" height="66.9204" rx="33.4602" fill="white"/>
<g clip-path="url(#clip0_371_984)">
<path d="M30.1143 33.4603C30.1143 34.3477 30.4668 35.1988 31.0943 35.8263C31.7218 36.4538 32.5729 36.8063 33.4603 36.8063C34.3477 36.8063 35.1988 36.4538 35.8263 35.8263C36.4538 35.1988 36.8063 34.3477 36.8063 33.4603C36.8063 32.5729 36.4538 31.7218 35.8263 31.0943C35.1988 30.4668 34.3477 30.1143 33.4603 30.1143C32.5729 30.1143 31.7218 30.4668 31.0943 31.0943C30.4668 31.7218 30.1143 32.5729 30.1143 33.4603Z" stroke="black" stroke-width="1.67301" stroke-linecap="round" stroke-linejoin="round"/>
<path d="M33.4602 25.653V23.4224" stroke="black" stroke-width="1.67301" stroke-linecap="round" stroke-linejoin="round"/>
<path d="M39.0369 27.8837L40.5983 26.3223" stroke="black" stroke-width="1.67301" stroke-linecap="round" stroke-linejoin="round"/>
<path d="M41.2676 33.4604H43.4983" stroke="black" stroke-width="1.67301" stroke-linecap="round" stroke-linejoin="round"/>
<path d="M39.0369 39.0371L40.5983 40.5986" stroke="black" stroke-width="1.67301" stroke-linecap="round" stroke-linejoin="round"/>
<path d="M33.4602 41.2676V43.4983" stroke="black" stroke-width="1.67301" stroke-linecap="round" stroke-linejoin="round"/>
<path d="M27.8835 39.0371L26.322 40.5986" stroke="black" stroke-width="1.67301" stroke-linecap="round" stroke-linejoin="round"/>
<path d="M26.7683 33.4604H24.5376" stroke="black" stroke-width="1.67301" stroke-linecap="round" stroke-linejoin="round"/>
<path d="M27.8835 27.8837L26.322 26.3223" stroke="black" stroke-width="1.67301" stroke-linecap="round" stroke-linejoin="round"/>
</g>
<defs>
<clipPath id="clip0_371_984">
<rect width="26.7682" height="26.7682" fill="white" transform="translate(20.0762 20.0762)"/>
</clipPath>
</defs>
</svg>
